HIERARCHY
ROOT Hips
{
	OFFSET 0.00000 0.00000 0.00000
	CHANNELS 6 Xposition Yposition Zposition Zrotation Yrotation Xrotation 
	JOINT LHipJoint
	{
		OFFSET 0 0 0
		CHANNELS 3 Zrotation Yrotation Xrotation
		JOINT LeftHip
		{
			OFFSET 1.62067 -1.77917 0.70989
			CHANNELS 3 Zrotation Yrotation Xrotation
			JOINT LeftKnee
			{
				OFFSET 2.34532 -6.44371 0.00000
				CHANNELS 3 Zrotation Yrotation Xrotation
				JOINT LeftAnkle
				{
					OFFSET 2.74224 -7.53425 0.00000
					CHANNELS 3 Zrotation Yrotation Xrotation
					JOINT LeftToe
					{
						OFFSET 0.17032 -0.46794 2.08086
						CHANNELS 3 Zrotation Yrotation Xrotation
						End Site
						{
							OFFSET 0.00000 -0.00000 1.07476
						}
					}
				}
			}
		}
	}
	JOINT RHipJoint
	{
		OFFSET 0 0 0
		CHANNELS 3 Zrotation Yrotation Xrotation
		JOINT RightHip
		{
			OFFSET -1.55811 -1.77917 0.70989
			CHANNELS 3 Zrotation Yrotation Xrotation
			JOINT RightKnee
			{
				OFFSET -2.33243 -6.40830 0.00000
				CHANNELS 3 Zrotation Yrotation Xrotation
				JOINT RightAnkle
				{
					OFFSET -2.78798 -7.65993 0.00000
					CHANNELS 3 Zrotation Yrotation Xrotation
					JOINT RightToe
					{
						OFFSET -0.22707 -0.62388 2.04059
						CHANNELS 3 Zrotation Yrotation Xrotation
						End Site
						{
							OFFSET -0.00000 -0.00000 1.07030
						}
					}
				}
			}
		}
	}
	JOINT lowerback
	{
		OFFSET 0 0 0
		CHANNELS 3 Zrotation Yrotation Xrotation
		JOINT Chest
		{
			OFFSET 0.02203 1.91565 0.07161
			CHANNELS 3 Zrotation Yrotation Xrotation
			JOINT Chest2
			{
				OFFSET 0.01740 1.90525 0.11636
				CHANNELS 3 Zrotation Yrotation Xrotation
				JOINT lowerneck
				{
					OFFSET 0 0 0
					CHANNELS 3 Zrotation Yrotation Xrotation
					JOINT Neck
					{
						OFFSET -0.10841 1.83566 0.05067
						CHANNELS 3 Zrotation Yrotation Xrotation
						JOINT Head
						{
							OFFSET 0.06601 1.74760 -0.50505
							CHANNELS 3 Zrotation Yrotation Xrotation
							End Site
							{
								OFFSET 0.03102 1.85215 -0.17697
							}
						}
					}
				}
				JOINT LeftCollar
				{
					OFFSET 0 0 0
					CHANNELS 3 Zrotation Yrotation Xrotation
					JOINT LeftShoulder
					{
						OFFSET 2.87059 1.35470 0.16111
CHANNELS 3 Zrotation Xrotation Yrotation
						JOINT LeftElbow
						{
OFFSET 0 -5.435920 0.000000
CHANNELS 3 Zrotation Xrotation Yrotation
							JOINT LeftWrist
							{
OFFSET 0 -3.254600 0.000000
CHANNELS 3 Zrotation Xrotation Yrotation
								JOINT lhand
								{
									OFFSET 0 0 0
CHANNELS 3 Zrotation Xrotation Yrotation
									JOINT LFingers
									{
OFFSET 0 -0.498240 0.000000
CHANNELS 3 Zrotation Xrotation Yrotation
										End Site
										{
OFFSET 0 -0.401700 0.000000
										}
									}
								}
								JOINT LThumb
								{
OFFSET 0 0.000000 0.000000
CHANNELS 3 Zrotation Xrotation Yrotation
									End Site
									{
OFFSET 0 -0.407830 0.407830
									}
								}
							}
						}
					}
				}
				JOINT RightCollar
				{
					OFFSET 0 0 0
					CHANNELS 3 Zrotation Yrotation Xrotation
					JOINT RightShoulder
					{
						OFFSET -2.86643 1.23488 0.45957
CHANNELS 3 Zrotation Xrotation Yrotation
						JOINT RightElbow
						{
OFFSET 0 -5.338300 0.000000
CHANNELS 3 Zrotation Xrotation Yrotation
							JOINT RightWrist
							{
OFFSET 0 -3.231480 0.000000
CHANNELS 3 Zrotation Xrotation Yrotation
								JOINT rhand
								{
									OFFSET 0 0 0
CHANNELS 3 Zrotation Xrotation Yrotation
									JOINT RFingers
									{
OFFSET 0 -0.463640 0.000000
CHANNELS 3 Zrotation Xrotation Yrotation
										End Site
										{
OFFSET 0 -0.373800 0.000000
										}
									}
								}
								JOINT RThumb
								{
OFFSET 0 0.000000 0.000000
CHANNELS 3 Zrotation Xrotation Yrotation
									End Site
									{
OFFSET 0 -0.379510 0.379510
									}
								}
							}
						}
					}
				}
			}
		}
	}
}
MOTION
Frames: 4
Frame Time: 0.008333333333333333
0.963044 15.561430 3.087986 12.529393 -37.908815 8.193570 0.000000 0.000000 0.000000 -24.726239 -38.065184 -44.989294 9.246216 16.963529 56.937683 0.977891 -10.379934 -18.023023 0.682251 5.279140 14.706943 0.000000 0.000000 0.000000 -6.947218 7.367377 -31.278033 -15.261583 -19.452994 76.023318 0.258987 -10.034626 -8.458127 -3.550557 11.535804 -34.110560 5.682366 4.449183 -0.977299 -0.461006 5.782469 2.706562 -3.357792 3.047003 3.964537 -15.087628 -8.879604 3.152124 7.313144 -16.929731 48.410718 3.876776 -9.011859 21.413043 0.000000 0.000000 0.000000 13.925013 -20.627945 -106.856876 76.736759 -59.324755 48.539743 -5.213781 -24.303534 19.035210 0.000000 0.000000 0.000000 -7.125000 0.000000 0.000000 -21.372911 11.774297 -17.885657 0.000000 0.000000 0.000000 -3.889209 -6.669252 56.641910 -9.849706 -16.504074 -1.431965 -43.703529 50.953017 47.579243 0.000000 0.000000 0.000000 7.125000 0.000000 0.000000 -13.421332 86.435030 12.566160
0.963918 15.575519 3.091487 12.662019 -38.043941 8.101351 0.000000 0.000000 0.000000 -24.838445 -38.049239 -44.990400 9.230881 16.954040 56.885166 0.943638 -10.678859 -17.791308 0.956538 6.227970 17.447478 0.000000 0.000000 0.000000 -7.134201 7.345339 -31.260995 -15.225784 -19.444549 75.915847 0.252810 -9.881116 -8.267056 -3.175330 10.973592 -32.190932 6.143442 5.583472 -0.589151 -1.418635 7.333146 3.178408 -4.493782 3.882776 4.599557 -12.484435 -10.312912 2.232357 7.952965 -19.512726 47.692554 3.166876 -9.412774 21.351557 0.000000 0.000000 0.000000 14.824519 -23.299240 -109.911615 77.055904 -59.357356 48.814319 -5.080737 -24.869312 19.186097 0.000000 0.000000 0.000000 -7.125000 0.000000 0.000000 -21.278145 11.630977 -17.861597 0.000000 0.000000 0.000000 -2.011564 -7.927981 51.502568 -9.479526 -15.921240 -1.328636 -43.568749 52.807798 47.582225 0.000000 0.000000 0.000000 7.125000 0.000000 0.000000 -12.434466 86.392063 11.632609
0.962732 15.572227 3.082870 12.648279 -38.094327 8.065098 0.000000 0.000000 0.000000 -24.725964 -37.981259 -44.979607 9.234191 16.956064 56.896507 0.927376 -10.821210 -17.682518 0.851417 5.883431 16.446854 0.000000 0.000000 0.000000 -7.106551 7.337978 -31.345162 -15.246228 -19.449339 75.977283 0.238048 -9.764338 -8.487579 -3.472773 11.421490 -33.717490 5.851636 4.719929 -0.805440 -0.832464 6.160442 2.818205 -3.816681 3.253900 4.086693 -14.315602 -9.004837 2.934991 7.925430 -17.340389 47.873340 3.956565 -8.962841 21.104346 0.000000 0.000000 0.000000 14.257610 -21.201001 -107.391168 76.424505 -59.292031 48.271198 -6.709547 -23.669774 19.238802 0.000000 0.000000 0.000000 -7.125000 0.000000 0.000000 -22.251622 11.600803 -18.839972 0.000000 0.000000 0.000000 -3.039556 -7.025694 54.776618 -9.626778 -16.153635 -1.369259 -43.628824 51.440885 46.276974 0.000000 0.000000 0.000000 7.125000 0.000000 0.000000 -15.570338 85.114882 14.206447
0.960134 15.577262 3.078129 12.377422 -38.293138 8.187187 0.000000 0.000000 0.000000 -24.524834 -37.682904 -45.107388 9.259251 16.971692 56.982495 0.973848 -10.508453 -18.011814 0.722230 5.430226 15.139934 0.000000 0.000000 0.000000 -6.820784 7.607750 -31.401477 -15.253072 -19.450956 75.997797 0.215179 -9.597698 -8.849091 -3.820635 11.917439 -35.440939 6.144237 5.646437 -0.164589 -1.343069 7.442773 3.012989 -4.463099 3.921420 4.189450 -12.403665 -10.376541 2.322850 7.981394 -19.690539 47.769989 3.139598 -9.473053 21.424952 0.000000 0.000000 0.000000 14.725643 -23.060125 -109.887617 76.786542 -59.329880 48.582580 -7.933218 -23.646243 19.405068 0.000000 0.000000 0.000000 -7.125000 0.000000 0.000000 -22.961280 11.451184 -19.634632 0.000000 0.000000 0.000000 -1.772939 -7.560971 50.505199 -9.600362 -16.111944 -1.361904 -43.482559 52.986059 46.890348 0.000000 0.000000 0.000000 7.125000 0.000000 0.000000 -13.584753 85.678023 12.532071
